<svg width="194" height="145" viewBox="0 0 194 145" fill="none" xmlns="http://www.w3.org/2000/svg">
<path d="M66.9993 64.9854L61.5593 64.9894C63.6123 68.7054 58.4313 69.3684 60.7203 64.5694C60.0063 63.8524 57.2493 67.6254 57.3623 65.6054C57.6373 60.6854 67.2293 63.6324 67.6403 62.9154C67.9933 61.4884 67.4253 52.1034 66.9223 51.6704C65.3433 52.1124 59.4973 49.0344 58.8993 49.1484C58.3773 49.2484 57.4303 50.6694 56.6843 51.1124C54.6943 52.2944 49.8973 52.2474 47.5443 52.0084C46.3343 51.8854 43.1473 50.6334 42.5833 50.7964C41.7763 51.0294 39.0823 56.1894 41.0533 57.0294C36.8823 57.4814 40.1293 48.8264 41.7603 48.3274C43.9713 47.6524 47.9853 49.3084 50.4763 49.4944C51.7923 49.5924 56.6523 49.6294 57.3473 48.6214C57.5823 48.2804 56.3683 45.7254 57.9983 45.7054C59.7453 45.6844 63.8023 48.7314 66.3833 49.0784C67.8873 49.2814 65.8633 47.1664 67.2093 46.5794C68.6193 47.7234 67.3923 49.6664 69.2503 49.4704C72.8003 49.0954 72.6683 46.3234 71.6053 43.6444C75.7743 44.2124 73.3953 49.0824 72.4323 51.5974L71.6073 51.1714C71.6513 52.7204 72.2233 53.8334 71.9273 55.4674C71.4333 58.1904 68.6553 60.1054 69.0973 62.8914C71.5063 60.2584 73.1963 62.5394 72.6773 65.4174C72.3973 66.9724 70.4703 69.9424 70.4253 70.7064C70.3863 71.3754 71.7143 72.6414 72.0463 73.5524C73.6333 77.9114 66.8983 81.2024 66.5603 84.8594C66.1373 89.4504 68.9283 87.8414 69.4863 88.4454C69.5463 88.5104 69.5693 90.0304 69.5123 90.0904C68.8153 90.8164 65.1423 89.6944 64.5903 88.1094C62.5243 82.1804 70.0033 79.0634 70.6853 75.9794C71.2083 73.6144 69.5603 71.1934 67.9653 73.4794C67.3663 74.3374 66.2033 79.0834 65.3973 80.7484C64.4623 82.6804 63.3093 84.8074 61.5323 86.0894C60.6523 86.7244 58.1423 87.4474 57.8623 88.2904C58.0293 94.8004 56.0633 98.7034 62.7983 102.035C66.9003 104.065 69.6903 103.695 73.8533 104.372C75.1163 104.577 82.5303 106.26 82.9023 105.99C79.1473 92.8574 78.1293 79.1424 75.6563 65.7434C75.0543 62.4794 73.8643 59.0004 73.3813 55.8794C73.3123 55.4314 72.9353 54.4264 73.6913 54.5244C77.4563 67.6754 78.4463 81.4354 81.3583 94.7744C81.7953 96.7744 83.7683 105.998 84.8243 106.792C85.8023 107.527 90.1753 108.63 91.8403 109.401C92.8143 109.852 94.3553 110.513 95.1773 111.086C102.32 116.058 97.0353 131.494 96.6433 138.776C96.2403 139.828 95.9043 139.131 95.0443 139.047L97.1453 119.999C96.5653 114.738 95.6663 112.243 90.7193 110.104C81.0533 105.926 68.5833 108.783 60.5073 101.395C58.8603 101.429 60.8623 102.659 60.7253 103.264C60.3463 104.935 58.3643 102.739 57.8603 101.951C55.2713 97.9034 55.9883 92.8314 56.9533 88.4214C56.5443 88.0394 52.3513 89.6114 52.3603 88.2094C52.3633 87.6824 56.0003 87.1354 56.8243 86.8234C58.0843 86.3464 60.3503 85.1214 61.3043 84.1894C62.9133 82.6184 66.9983 74.4064 66.9983 72.3074V64.9854H66.9993ZM69.6793 54.8064L68.6773 52.0134L69.0953 59.1234C69.8473 58.8404 70.3013 55.7484 70.2923 55.1214C70.2903 54.8754 69.7553 54.9544 69.6793 54.8064ZM69.9223 70.0054C70.3583 68.8614 72.9273 63.4304 70.9603 62.8954C69.0303 62.3714 68.2783 66.0874 68.2843 67.3454C68.2873 67.9094 69.0933 70.7814 69.9223 70.0054Z" fill="#1a1a1a"/>
<path d="M109.684 55.3604C102.75 54.2924 99.4823 49.8854 98.0723 43.3274C97.8773 42.4194 98.1433 41.3234 97.9003 40.5694C97.6993 39.9464 96.3983 39.7364 95.7483 38.1184C94.5023 35.0204 93.9133 28.3974 96.1033 25.6654C97.1713 24.3334 97.8783 25.3394 97.9633 25.2304C98.3733 24.7044 97.2143 22.5664 97.1163 21.6844C96.8813 19.5614 96.8953 13.4844 97.5263 11.6064C97.8423 10.6674 99.0283 9.55038 99.1113 8.63638C99.2103 7.54838 98.0933 6.37039 97.9733 5.30939C97.9183 4.82339 98.2803 1.94039 98.4073 1.81839C99.3353 0.920389 103.021 3.56837 103.272 0.525374C116.375 -1.18163 130.456 1.18139 141.253 8.93239C142.765 10.9704 143.248 15.8114 143.177 18.3424C143.135 19.8594 143.021 24.2484 141.071 23.5564C140.512 20.6414 141.619 18.4044 141.481 15.3974C141.345 12.4464 140.936 9.22737 138.226 7.77537C131.856 4.36437 112.187 0.443376 105.296 1.79938C104.097 2.03538 102.718 3.92637 100.478 3.05337L101.313 5.13838L99.2253 5.14339C99.1493 6.54939 100.199 7.63538 100.054 9.07938C99.9343 10.2754 98.7073 11.4284 98.4803 12.5604C98.3203 13.3574 97.7333 20.3134 98.0183 20.5984C98.1963 20.7764 99.1563 20.3784 99.2513 20.8554C99.5673 27.6844 98.7353 35.0104 99.2053 41.7764C99.4973 45.9714 100.879 49.5524 104.602 51.8634C107.032 53.3714 112.575 54.0674 113.869 55.1524C115.44 56.4694 111.121 55.9434 110.522 55.3604V66.0314C110.522 66.1194 110.167 66.3304 110.3 66.6654C111.855 67.3044 120.114 73.5744 120.762 73.6034C122.957 73.7004 122.221 72.2534 122.307 72.1574C122.741 71.6714 124.259 72.0474 125.031 71.7904C126.492 71.3054 134.359 66.2654 134.791 66.6614C135.227 67.0594 134.22 67.8304 133.923 68.0904C132.385 69.4344 122.92 74.4804 121.141 74.5974C118.854 74.7474 110.772 68.5474 110.104 69.1734C110.519 70.2704 111.371 71.2634 111.683 72.4034C111.788 72.7884 112.135 74.2754 111.365 74.1874C110.844 71.1534 106.279 66.5704 106.95 63.7244C107.075 63.1954 107.107 62.7094 107.797 62.8944C108.847 63.4494 108.205 65.6964 109.686 65.4024V55.3604H109.684ZM97.5433 37.7814C96.9293 34.0334 98.8663 30.0064 97.3403 26.4864C95.9293 28.0314 96.3303 30.2474 96.2773 32.1514L97.5433 37.7814Z" fill="#1a1a1a"/>
<path d="M188.771 84.2324C187.98 84.3324 188.65 83.4444 188.094 82.9454C187.926 82.7944 186.793 82.2624 186.685 82.7674C189.775 86.2724 190.819 90.9464 191.582 95.4464C193.237 105.2 192.747 114.419 192.942 124.216C192.982 126.234 194.238 131.695 192.755 133.2C191.41 134.565 190.985 133.018 190.865 131.735C189.617 118.392 191.641 104.541 189.06 91.2714C188.741 89.6324 187.805 84.5714 186.058 84.2334C179.954 83.0504 176.846 90.5224 175.071 95.0104C171.675 103.597 168.739 114.383 167.136 123.483C166.598 126.535 166.581 130.011 166.062 132.889C165.931 133.615 165.88 134.271 164.923 134.029C166.15 122.282 168.608 110.537 172.246 99.3004C174.463 92.4504 176.528 84.1864 184.795 83.3864C186.902 83.1824 185.587 82.2064 184.407 81.6954C178.48 79.1304 168.725 77.9934 162.146 76.3374C156.535 74.9254 151.137 72.7684 145.42 71.7204C144.636 71.5764 141.599 72.0924 141.907 70.6384C142.162 69.4354 147.568 70.7094 148.694 70.9564C153.037 71.9094 157.25 73.7204 161.569 74.8214C168.395 76.5604 175.339 77.7304 182.077 79.8404C184.268 80.5274 190.164 81.4754 188.771 84.2324Z" fill="#1a1a1a"/>
<path d="M51.0973 26.8994C49.4103 26.5864 48.4073 25.2164 46.6033 24.9124C38.3353 23.5214 31.0983 36.2784 27.8623 42.3784C21.5753 54.2304 16.8993 66.7854 9.67634 78.1764C6.85034 82.6324 3.21834 86.7194 0.880345 91.3434C4.22934 92.3604 6.84333 94.2124 8.63733 97.1944C11.4213 101.821 10.6783 106.501 17.7923 105.542C19.0513 105.372 22.7673 103.34 23.4763 104.326C24.9993 106.442 16.8963 108.61 15.3323 108.526C7.28734 108.091 8.46734 98.1844 3.59934 94.2794C2.09334 93.0714 -0.911685 92.7094 0.268315 90.1114C6.83631 82.1084 11.7543 73.5564 16.3033 64.2984C21.5563 53.6084 30.2803 28.3514 41.6633 23.9574C45.5073 22.4744 48.7643 23.5364 51.0973 26.8994Z" fill="#1a1a1a"/>
<path d="M119.708 77.1064C119.866 76.9624 119.657 75.0994 120.98 75.4484C121.199 75.7024 120.776 77.9234 120.955 78.5514C121.061 78.9244 121.696 78.7204 122.064 78.9514C122.25 79.0684 122.274 79.5734 122.54 79.6304C123.937 79.9304 128.555 78.7384 130.379 78.7784C130.879 78.7894 133.405 79.3724 133.712 79.5814C135.449 80.7684 131.893 85.3434 130.574 86.0814C127.114 88.0194 123.923 84.8174 120.944 83.2104C119.892 82.6434 119.11 83.6034 119.051 81.4534C119.033 80.7784 119.576 79.1644 119.281 78.8204C119.002 78.4944 111.484 76.5744 110.938 77.1184C110.77 79.5274 111.249 81.9014 111.782 84.2334C112.594 84.8084 117.113 79.9934 117.635 82.7654C110.405 90.0664 107.311 84.7634 108.409 76.4734C109.05 71.6354 119.086 77.6744 119.708 77.1064ZM132.7 80.8914C131.882 80.6704 127.341 79.8314 127.895 81.2934C128.372 82.5504 128.922 82.2204 127.268 83.6074C129.29 86.0114 131.604 82.7164 132.7 80.8914Z" fill="#1a1a1a"/>
<path d="M81.6433 138.634C81.5503 138.757 80.3643 138.959 79.9703 138.875C76.6513 138.166 71.4623 133.909 67.4283 133.365C62.1663 132.655 54.0923 142.089 49.7043 144.857C46.0263 142.917 42.6773 140.296 38.9703 138.42C35.0043 136.413 30.6823 134.208 26.2903 135.804C23.9823 136.643 21.8763 138.883 20.3323 139.47C19.5713 139.759 19.5513 138.889 19.7023 138.428C19.8293 138.04 25.7943 134.243 26.5313 133.951C33.1123 131.35 43.6723 140.197 49.5733 142.754C53.1773 139.638 61.2073 131.184 65.9543 131.071C69.1833 130.995 76.9973 134.656 79.7723 136.535C80.1843 136.814 82.1663 137.946 81.6433 138.634Z" fill="#1a1a1a"/>
<path d="M41.4723 81.7204L39.7873 81.1074L36.6653 76.7064C33.6923 79.2364 31.7563 83.7894 34.5693 87.1624C35.0613 86.4184 34.9173 84.0914 35.5873 83.5814C36.1403 83.1614 37.1503 83.4624 37.2223 84.0114C37.2443 84.1804 36.4703 87.0924 36.3673 87.3014C36.0453 87.9534 35.3593 87.9164 35.2553 88.0544C35.1703 88.1674 36.2913 90.7074 34.7593 90.3304C32.1893 89.6974 30.7223 84.0584 31.1943 81.6984C31.8623 78.3644 36.1503 75.8584 36.3653 74.7624C36.4803 74.1724 35.4913 72.2604 35.3093 71.3544C35.0443 70.0324 35.0033 68.6024 34.7593 67.2924C34.3613 65.1494 33.1673 68.5464 33.1103 69.4294C33.0643 70.1314 33.6823 71.9384 33.5183 72.0964C33.4053 72.2054 32.1793 71.8054 32.1323 72.6084L26.8283 96.7864C27.3813 88.3364 29.6433 79.9994 31.7333 71.8074C30.8333 69.4714 29.2813 68.0824 29.8463 65.2914C30.3053 63.0284 32.7693 60.8894 34.7703 62.8914L34.7783 59.9594C35.8663 60.9274 35.9293 58.8844 37.0783 58.2904C37.5363 60.6474 35.7613 63.0774 36.1093 65.4994C36.4103 67.5964 38.9533 69.0004 39.1963 71.6634C39.3533 73.3794 37.9283 74.3794 38.1913 75.9654C38.3613 76.9864 41.7323 81.5154 41.4723 81.7204ZM32.6793 69.1684C32.6723 67.9624 35.3423 63.8034 33.3063 63.3124C31.8153 62.9524 30.7583 68.5364 32.6793 69.1684ZM36.8733 73.3544C38.4533 72.7464 37.5953 69.9744 36.0323 70.0114L36.8733 73.3544Z" fill="#1a1a1a"/>
<path d="M42.7213 83.8184C43.2913 84.3674 43.3433 93.5614 43.0583 94.8194C42.0773 99.1614 34.5483 104.79 30.6793 106.711C25.0473 109.509 9.91632 112.694 6.63332 116.981C2.84832 121.923 7.13232 131.211 7.57732 136.753C5.87232 137.786 5.26531 134.137 4.85531 132.778C2.66631 125.529 1.44932 116.791 9.38332 113.036C20.4253 107.809 29.6493 107.531 39.3833 98.2584C40.3303 97.3564 41.5293 96.1374 41.7943 94.8104C42.0313 93.6214 42.2563 90.3614 42.2913 89.0254C42.3293 87.5824 41.6863 86.0624 41.8843 84.4394C41.9563 83.8534 42.1223 83.2414 42.7213 83.8184Z" fill="#1a1a1a"/>
<path d="M115.965 134.871C116.778 134.7 116.7 134.032 116.8 133.409C119.015 119.637 122.297 101.255 127.489 88.4214C127.76 87.7524 127.444 87.3974 128.512 87.5854L116.59 138.217C116.058 137.807 115.844 137.26 115.655 136.641C113.611 129.93 112.281 119.909 111.07 112.77C109.417 103.024 108.297 93.1634 106.758 83.4014L107.877 87.9254C110.108 103.658 112.942 119.272 115.965 134.871Z" fill="#1a1a1a"/>
<path d="M138.138 32.7644C138.142 35.4934 136.187 37.7634 136.442 40.5064L138.139 67.0804H136.887C136.689 66.8834 137.438 64.0404 135.901 64.1974L124.331 71.2584C125.744 68.7854 135.84 64.0164 136.38 62.1794L136.044 41.1344L133.807 46.2144C132.208 48.7864 125.651 54.0344 122.884 55.3784C122.488 55.5704 121.717 56.1704 121.403 55.5714C124.489 52.9974 129.281 49.7724 131.618 46.5364C134.283 42.8474 134.557 37.5534 136.563 33.9044C136.908 33.2764 137.299 32.6294 138.138 32.7644Z" fill="#1a1a1a"/>
<path d="M129.35 11.4204C129.238 15.8814 131.668 21.2364 134.024 24.9514C134.158 25.1624 137.419 28.5914 135.425 27.7374C132.97 26.6844 128.085 16.5414 128.095 13.5104C122.412 14.4364 117.644 16.4594 111.975 13.9414C110.005 13.0664 107.333 10.6584 107.319 8.35338C107.29 3.52538 111.382 10.0364 112.219 10.7674C117.707 15.5644 123.271 13.6864 129.35 11.4204Z" fill="#1a1a1a"/>
<path d="M49.4363 33.5854C49.9603 34.1224 55.7823 32.2964 57.5083 32.8394C58.3933 33.1184 58.3843 34.1204 58.9193 34.4604C59.2643 34.6794 66.2663 35.7774 64.9043 36.9444C63.6293 36.9204 62.3723 36.5984 61.1353 36.3234C59.8943 36.0474 57.5233 35.0564 56.6863 34.9754C55.1403 34.8264 51.5813 36.5454 49.5343 36.4194C48.9033 36.3804 48.1363 35.4354 47.7583 35.6954C47.6933 35.7404 47.6223 36.7254 47.1203 36.9464C45.9133 37.4784 46.2433 35.7694 45.4553 36.1154C44.8823 36.3664 41.6803 39.6954 41.0543 39.0374C40.8723 38.1924 41.2403 37.9194 41.6613 37.3464C42.0823 36.7734 46.9723 31.8864 47.3343 31.7184C49.8783 30.5374 49.2213 33.3644 49.4363 33.5854Z" fill="#1a1a1a"/>
<path d="M103.732 69.0764C104.388 68.4294 104.652 65.2504 106.129 64.5694L104.993 69.2924L103.411 70.6394C96.8223 72.1084 90.4423 74.8594 83.8253 76.1624C80.9803 76.7224 76.3493 76.9664 81.6373 74.8114L103.732 69.0764Z" fill="#1a1a1a"/>
<path d="M13.8563 102.648C15.4513 92.3714 19.2063 82.5584 22.7443 72.8324L27.2383 62.4774C24.6933 70.0864 21.5813 77.5034 19.1803 85.1714C17.5293 90.4444 16.4723 96.1864 14.8133 101.31C14.6403 101.847 14.5273 102.533 13.8563 102.648Z" fill="#1a1a1a"/>
<path d="M31.8473 61.0094C31.8483 61.0624 32.6693 62.1224 31.6383 62.0474C30.4153 61.9594 30.5093 57.5254 30.5893 56.6114L29.7613 56.4144C31.1883 54.2594 31.3423 51.3824 32.2563 48.8644C33.3293 45.9094 35.7273 40.6144 38.9623 39.8814C37.3593 41.6384 35.8913 43.4194 34.8283 45.5774C34.0333 47.1924 31.8483 53.2114 31.8483 54.7334C31.8473 56.8234 31.8083 58.9194 31.8473 61.0094Z" fill="#1a1a1a"/>
<path d="M130.564 26.0254C130.151 26.6354 122.434 26.1404 121.651 25.6104C120.516 24.8424 120.952 23.5694 122.116 23.2234C123.734 22.7424 132.449 23.2384 130.564 26.0254Z" fill="#1a1a1a"/>
<path d="M107.595 27.7404L107.206 29.6554C105.001 30.3364 104.468 28.9064 105.917 27.3264C96.8603 27.8614 101.846 24.0844 107.262 25.7694C111.522 27.0934 112.162 32.4794 107.595 27.7404Z" fill="#1a1a1a"/>
<path d="M130.606 30.6744C130.969 31.1404 130.225 31.8634 129.562 31.9354C128.63 32.0364 124.558 30.4524 124.338 30.6684C124.273 30.7324 124.367 32.1334 123.7 32.3404C122.117 32.8324 122.387 30.8404 122.221 30.6824C121.872 30.3504 119.874 31.5804 119.305 30.8754C119.884 29.4834 121.895 28.5454 123.282 28.5404C123.953 28.5384 130.371 30.3734 130.606 30.6744Z" fill="#1a1a1a"/>
<path d="M54.4433 74.6114L55.6973 73.9874C51.7163 70.7174 53.6763 63.6194 57.3703 60.7994C56.0713 64.1384 54.1583 67.2144 55.4003 70.9364C55.7373 71.9464 57.1913 73.1804 56.8993 74.3124C56.6053 75.4534 54.4453 76.7934 54.4433 74.6114Z" fill="#1a1a1a"/>
<path d="M113.867 26.9064L110.909 40.0534C110.948 40.3274 116.693 41.8524 115.54 42.8034C114.069 43.1324 110.366 41.9724 110.091 40.4974C109.782 38.8404 111.991 30.4524 112.655 28.3974C112.892 27.6624 112.726 26.6354 113.867 26.9064Z" fill="#1a1a1a"/>
<path d="M48.3773 63.3114C49.3103 63.5724 49.6063 65.3654 49.4213 66.2384L45.6573 64.5704C46.5213 65.5734 47.2573 67.5084 45.4453 67.9224C44.0143 67.9164 43.8913 65.4364 44.8203 64.5704C44.2053 64.1294 39.8123 65.8304 40.6353 63.3104C42.7033 63.6804 46.5833 62.8094 48.3773 63.3114Z" fill="#1a1a1a"/>
<path d="M44.4003 126.088C44.6203 126.307 44.6523 127.029 43.8463 126.854C39.3623 125.885 28.9013 119.222 25.2673 116.132C24.9713 115.88 23.7983 115.296 24.3163 114.785C24.8513 114.258 35.3433 122.545 37.0063 122.806C37.9993 123.882 43.9463 125.636 44.4003 126.088Z" fill="#1a1a1a"/>
<path d="M110.1 23.9714C109.792 24.2734 102.111 23.1424 101.554 22.7634C101.128 22.4744 101.218 21.7114 101.363 21.3054C101.915 19.7594 106.096 21.1614 107.259 21.5854C107.895 21.8184 111.24 22.8554 110.1 23.9714Z" fill="#1a1a1a"/>
<path d="M143.556 25.2454C144.612 25.9754 143.36 31.8704 142.341 32.5694C141.743 32.9784 141.007 33.0904 141.06 32.1324C141.15 30.4774 142.377 28.6604 142.324 26.9064C141.91 26.4864 139.976 27.7894 139.607 28.1604C138.658 29.1154 138.658 30.3884 137.727 31.0864C136.785 28.8464 142.11 24.2444 143.556 25.2454Z" fill="#1a1a1a"/>
<path d="M64.0693 116.462L51.1003 127.338C50.8813 126.324 51.2683 126.274 51.7843 125.725C54.0543 123.31 58.2363 120.161 61.0073 118.208C61.8993 117.58 62.9993 116.656 64.0693 116.462Z" fill="#1a1a1a"/>
<path d="M109.267 46.1514C109.032 44.8704 109.667 45.5164 110.255 45.2824C113.206 44.1114 112.388 45.0594 114.661 45.5004C115.991 45.7584 117.968 45.2484 119.3 46.7804L113.715 46.8534C112.247 46.2884 110.862 45.9804 109.267 46.1514Z" fill="#1a1a1a"/>
<path d="M58.2113 77.9624C59.7203 79.3484 56.2683 78.3544 56.1683 78.4304C56.0363 78.5304 56.0163 79.2194 55.7153 79.4234C55.1543 79.8034 49.8693 79.2034 49.8493 78.5854C49.8193 77.6794 51.5603 78.4774 52.0493 78.3314C52.6363 78.1554 53.0423 77.2194 53.4523 77.1554C53.9463 77.0774 54.3763 77.8254 54.7563 77.8704C55.4593 77.9534 57.6053 77.4054 58.2113 77.9624Z" fill="#1a1a1a"/>
<path d="M62.2863 59.2254C63.0333 59.0954 67.2613 58.6124 66.9973 60.1664C66.1083 61.0254 64.8353 60.2564 63.4893 60.4224C62.4863 60.5464 59.6553 61.6484 59.2523 61.6244C56.9613 61.4874 61.4633 59.3684 62.2863 59.2254Z" fill="#1a1a1a"/>
<path d="M48.1653 60.3794C47.2713 59.7384 41.0543 59.0684 41.0623 58.4984C41.0853 56.6204 49.5333 59.1144 48.1653 60.3794Z" fill="#1a1a1a"/>
<path d="M46.2233 85.3414C46.9953 86.0334 48.6533 86.4244 48.5813 87.5834C46.9053 86.8044 44.4273 85.5254 44.4053 83.3984C45.3573 83.6424 45.6393 84.8174 46.2233 85.3414Z" fill="#1a1a1a"/>
<path d="M136.464 74.1934C136.935 77.6724 132.973 76.6684 134.911 74.7284C135.174 74.4654 136.275 73.9934 136.464 74.1934Z" fill="#1a1a1a"/>
<path d="M54.8613 81.3074C55.2243 82.6564 53.5073 82.3554 52.7733 81.5124L54.8613 81.3074Z" fill="#1a1a1a"/>
<path d="M104.658 74.1894C103.792 73.9104 103.932 72.0004 103.83 71.2644C104.695 71.5434 104.555 73.4534 104.658 74.1894Z" fill="#1a1a1a"/>
<path d="M28.0753 61.6344C28.0213 61.6924 27.8013 61.6144 27.6663 61.6354C27.5063 61.2904 27.9383 59.3164 28.4953 59.5474C28.5993 59.7714 28.1973 61.5044 28.0753 61.6344Z" fill="#1a1a1a"/>
<path d="M105.913 77.5414H105.503V79.6294H105.913V77.5414Z" fill="#1a1a1a"/>
</svg>
